<svg width="60" height="60" viewBox="0 0 60 60" fill="none" xmlns="http://www.w3.org/2000/svg">
<rect width="60" height="60" rx="30" fill="#E7E3DA"/>
<path d="M32.1363 14.5006L46.3361 37.776C46.5526 38.131 46.6666 38.5336 46.6666 38.9434C46.6666 39.3532 46.5526 39.7558 46.3361 40.1107C46.1196 40.4656 45.8082 40.7604 45.4331 40.9653C45.0581 41.1702 44.6327 41.2781 44.1997 41.2781H15.8001C15.3671 41.2781 14.9417 41.1702 14.5667 40.9653C14.1917 40.7604 13.8803 40.4656 13.6637 40.1107C13.4472 39.7558 13.3332 39.3532 13.3333 38.9434C13.3333 38.5336 13.4472 38.131 13.6638 37.776L27.8635 14.5006C28.8125 12.9441 31.1857 12.9441 32.1363 14.5006ZM29.9999 17.2244L17.2244 38.1652H42.7754L29.9999 17.2244ZM29.9999 32.9479C30.4361 32.9479 30.8544 33.1119 31.1628 33.4038C31.4713 33.6957 31.6446 34.0915 31.6446 34.5044C31.6446 34.9172 31.4713 35.313 31.1628 35.6049C30.8544 35.8968 30.4361 36.0608 29.9999 36.0608C29.5637 36.0608 29.1454 35.8968 28.837 35.6049C28.5286 35.313 28.3553 34.9172 28.3553 34.5044C28.3553 34.0915 28.5286 33.6957 28.837 33.4038C29.1454 33.1119 29.5637 32.9479 29.9999 32.9479ZM29.9999 22.0526C30.4361 22.0526 30.8544 22.2166 31.1628 22.5085C31.4713 22.8004 31.6446 23.1963 31.6446 23.6091V29.8349C31.6446 30.2477 31.4713 30.6436 31.1628 30.9355C30.8544 31.2274 30.4361 31.3914 29.9999 31.3914C29.5637 31.3914 29.1454 31.2274 28.837 30.9355C28.5286 30.6436 28.3553 30.2477 28.3553 29.8349V23.6091C28.3553 23.1963 28.5286 22.8004 28.837 22.5085C29.1454 22.2166 29.5637 22.0526 29.9999 22.0526Z" fill="#5F6B54"/>
</svg>
