<svg width="38" height="38" viewBox="0 0 38 38" fill="none" xmlns="http://www.w3.org/2000/svg">
<path d="M12.3498 3.16666H25.6498C30.7165 3.16666 34.8332 7.28333 34.8332 12.35V25.65C34.8332 28.0856 33.8656 30.4214 32.1434 32.1436C30.4212 33.8658 28.0854 34.8333 25.6498 34.8333H12.3498C7.28317 34.8333 3.1665 30.7167 3.1665 25.65V12.35C3.1665 9.91443 4.13403 7.57861 5.85624 5.8564C7.57845 4.13419 9.91427 3.16666 12.3498 3.16666ZM12.0332 6.33333C10.5214 6.33333 9.07162 6.93386 8.00266 8.00282C6.9337 9.07178 6.33317 10.5216 6.33317 12.0333V25.9667C6.33317 29.1175 8.88234 31.6667 12.0332 31.6667H25.9665C27.4782 31.6667 28.9281 31.0661 29.997 29.9972C31.066 28.9282 31.6665 27.4784 31.6665 25.9667V12.0333C31.6665 8.8825 29.1173 6.33333 25.9665 6.33333H12.0332ZM27.3123 8.70833C27.8372 8.70833 28.3407 8.91685 28.7118 9.28801C29.083 9.65918 29.2915 10.1626 29.2915 10.6875C29.2915 11.2124 29.083 11.7158 28.7118 12.087C28.3407 12.4581 27.8372 12.6667 27.3123 12.6667C26.7874 12.6667 26.284 12.4581 25.9129 12.087C25.5417 11.7158 25.3332 11.2124 25.3332 10.6875C25.3332 10.1626 25.5417 9.65918 25.9129 9.28801C26.284 8.91685 26.7874 8.70833 27.3123 8.70833ZM18.9998 11.0833C21.0995 11.0833 23.1131 11.9174 24.5978 13.4021C26.0824 14.8867 26.9165 16.9004 26.9165 19C26.9165 21.0996 26.0824 23.1133 24.5978 24.5979C23.1131 26.0826 21.0995 26.9167 18.9998 26.9167C16.9002 26.9167 14.8866 26.0826 13.4019 24.5979C11.9172 23.1133 11.0832 21.0996 11.0832 19C11.0832 16.9004 11.9172 14.8867 13.4019 13.4021C14.8866 11.9174 16.9002 11.0833 18.9998 11.0833ZM18.9998 14.25C17.7401 14.25 16.5319 14.7504 15.6411 15.6412C14.7503 16.532 14.2498 17.7402 14.2498 19C14.2498 20.2598 14.7503 21.468 15.6411 22.3588C16.5319 23.2496 17.7401 23.75 18.9998 23.75C20.2596 23.75 21.4678 23.2496 22.3586 22.3588C23.2494 21.468 23.7498 20.2598 23.7498 19C23.7498 17.7402 23.2494 16.532 22.3586 15.6412C21.4678 14.7504 20.2596 14.25 18.9998 14.25Z" fill="#3A778B"/>
</svg>
