<svg width="74" height="74" viewBox="0 0 74 74" fill="none" xmlns="http://www.w3.org/2000/svg">
<path d="M36.8047 1C56.5791 1 72.6102 17.0303 72.6104 36.8047C72.6104 56.5792 56.5792 72.6104 36.8047 72.6104C17.0303 72.6102 1 56.5791 1 36.8047C1.00015 17.0304 17.0304 1.00015 36.8047 1Z" fill="#E7E3DA" stroke="#3A778B" stroke-width="2"/>
<path d="M20.6009 52.0789L20.2769 51.4358C18.7911 52.8044 17.3054 50.7727 19.3221 50.0647L18.4994 47.4397L16.3755 47.2751C15.4581 45.6672 16.9738 45.737 18.1953 45.8193L18.3499 42.773C17.5846 42.7107 16.3331 42.2545 16.6173 41.2797C16.9962 39.9785 18.5618 41.2723 18.8385 41.0978L20.1173 38.8367C17.445 37.7174 19.0853 35.1622 20.925 37.4008C21.4086 37.6077 22.6102 36.1594 23.1611 35.95C22.4507 35.2395 22.4232 33.8659 23.6921 34.1326C24.4849 34.2972 24.3253 35.2968 24.6868 35.3492L27.3417 34.7434C27.1323 33.9881 26.9603 32.5372 28.0646 32.4799C29.7449 32.3951 28.7128 34.6562 29.3734 34.878L31.44 35.3517C31.7192 35.3093 31.8937 34.0604 32.7039 34.1027C34.1722 34.175 32.9831 35.8976 33.1427 36.1668L34.8852 37.4008L36.7274 36.3463C38.1808 36.9346 37.1986 38.196 36.174 38.6024L37.4728 41.1551C40.2723 40.0832 40.6138 42.4738 37.9514 42.9475L38.0985 45.8218C39.1106 45.6897 40.4618 45.5426 40.1601 46.9984C39.9308 47.664 38.3478 47.3474 37.7944 47.4422L36.8097 50.0672C38.7292 50.7228 37.5077 52.6249 35.9297 51.6427L35.5308 52.0789H44.4379C45.1085 52.0789 45.6544 53.991 44.2859 54.173H14.7327C13.0076 54.0084 13.8028 52.0789 14.2615 52.0789H20.6009ZM27.778 36.8624C26.9927 37.0992 26.1875 38.9389 25.9432 39.6868C24.976 42.6633 24.9436 46.6793 25.8186 49.6733C25.9507 50.127 26.4218 51.5754 26.6911 51.8521C27.0301 52.2011 29.1665 52.2036 29.508 51.9219C29.8496 51.6402 30.5301 49.616 30.6672 49.0675C31.4051 46.0935 31.3627 42.955 30.5077 40.0109C30.1836 38.899 29.3385 36.3962 27.778 36.8648V36.8624ZM24.612 37.6351C24.4973 37.5255 23.4179 38.3032 23.2509 38.4404C19.4193 41.5415 19.4692 47.0458 22.2338 50.8474C22.9343 51.8122 23.2135 52.408 24.6095 52.0017C22.4557 47.6989 22.5479 41.9553 24.6095 37.6376L24.612 37.6351ZM31.8364 52.0789C32.9407 52.3207 33.9902 50.8749 34.5337 50.0422C37.1761 45.9963 36.4333 39.9461 31.9186 37.6327L33.0778 42.0924C33.6412 45.4952 32.9981 48.8905 31.8389 52.0789H31.8364Z" fill="#3A778B"/>
<path d="M49.4637 34.6112C48.2123 34.9627 47.0955 35.6557 45.7443 35.91C33.2126 38.2682 27.5039 21.5484 37.8119 15.4459C47.9131 9.46542 59.4352 21.369 52.9911 31.0787C52.6222 31.6322 51.3309 32.8288 51.2137 33.088C51.0591 33.432 51.8992 34.681 52.2034 34.8206C52.7992 35.0948 53.0235 34.4591 53.6418 35.0399C54.2226 35.5884 57.1393 39.4997 57.5157 40.2251C58.6176 42.3441 56.0873 44.2885 54.3248 42.8103C53.9409 42.4887 50.9071 38.4253 50.6304 37.8968C50.1841 37.0442 50.7775 36.8423 50.6653 36.3612C50.5805 35.9972 49.531 35.1571 49.4587 34.6137L49.4637 34.6112ZM42.0499 16.0591C38.0313 16.5627 34.818 20.4441 34.5388 24.4028C34.0203 31.7344 41.9202 36.4285 48.2272 32.8063C56.6881 27.9477 52.353 14.7678 42.0499 16.0591Z" fill="#3A778B"/>
</svg>
