<svg width="74" height="74" viewBox="0 0 74 74" fill="none" xmlns="http://www.w3.org/2000/svg">
<path d="M36.8047 1C56.5791 1 72.6102 17.0303 72.6104 36.8047C72.6104 56.5792 56.5792 72.6104 36.8047 72.6104C17.0303 72.6102 1 56.5791 1 36.8047C1.00015 17.0304 17.0304 1.00015 36.8047 1Z" fill="#E7E3DA" stroke="#3A778B" stroke-width="2"/>
<path d="M57.6628 39.3503V53.9262C57.6628 54.2578 56.8925 54.8212 56.5036 54.7339L32.5245 54.5644C32.4024 54.4921 31.9113 53.8265 31.9113 53.7467V39.3503C30.5427 40.8037 28.4387 40.2453 29.5879 38.1886L43.6253 25.4026C44.0367 25.0237 44.6001 24.914 45.0961 25.1832L60.3576 38.3581C60.9883 39.4575 60.1283 40.5569 58.9092 40.168C58.4007 40.0059 58.2162 39.3628 57.6653 39.3503H57.6628ZM55.5164 52.4056V37.8296C55.5164 37.715 55.4092 37.4034 55.3394 37.2937L44.6724 27.9179L34.2346 37.2937V52.4056H40.6738V42.1224C40.6738 41.9255 41.4042 41.549 41.6684 41.5067C42.7479 41.3346 46.2454 41.3671 47.3821 41.4967C47.8757 41.5515 48.9028 41.9055 48.9028 42.4814V52.408H55.5189L55.5164 52.4056ZM46.5744 43.8201H42.8177V52.4056H46.5744V43.8201Z" fill="#3A778B"/>
<path d="M17.3999 22.5432C18.8158 16.5453 26.7108 15.1667 30.2631 20.1799C30.4551 20.4517 30.6072 21.0898 30.829 21.2244C31.1556 21.4214 32.5242 21.2743 33.2546 21.4812C36.5552 22.421 37.7867 26.7661 36.2286 29.6604C35.0146 31.9164 32.8009 32.6095 30.3903 32.764C27.4462 32.9535 18.4917 33.1554 15.9764 32.4998C10.3026 31.0165 11.4568 22.3637 17.3974 22.5432H17.3999ZM27.7304 20.4791C25.397 18.405 21.0096 19.2276 19.7631 22.1368C19.4216 22.9346 19.4665 23.7123 19.1648 24.4901C18.6438 25.0211 16.2008 24.2782 15.0167 25.9759C13.8325 27.6735 14.6028 29.7102 16.5199 30.3509C21.2065 30.1166 26.8653 30.9517 31.4597 30.4357C35.8771 29.9396 35.9669 23.5079 31.0958 23.4506C30.5099 23.4431 30.1111 23.8395 29.5103 23.4431C29.084 23.1614 28.5331 21.197 27.7304 20.4841V20.4791Z" fill="#3A778B"/>
</svg>
