<svg width="74" height="74" viewBox="0 0 74 74" fill="none" xmlns="http://www.w3.org/2000/svg">
<path d="M36.8047 1C56.5791 1 72.6102 17.0303 72.6104 36.8047C72.6104 56.5792 56.5792 72.6104 36.8047 72.6104C17.0303 72.6102 1 56.5791 1 36.8047C1.00015 17.0304 17.0304 1.00015 36.8047 1Z" fill="#E7E3DA" stroke="#3A778B" stroke-width="2"/>
<path d="M39.6993 49.1072L37.7199 44.3259C35.7406 45.2806 35.0301 42.9124 37.2263 42.8426L36.5507 39.0684C34.3396 39.4647 33.9307 36.75 36.3264 37.3632L36.4884 37.2486L37.0618 33.781C36.3439 33.7087 35.3367 33.3123 35.606 32.4124C35.9749 31.6396 36.8 32.0235 37.3884 32.2952C37.3809 31.6271 38.8517 29.9369 38.6373 29.4957C38.4428 29.0943 36.4386 28.1695 37.7947 27.3393C38.6173 26.8358 39.2032 27.7208 39.784 28.167L41.4418 26.8532L41.2075 25.6492C41.8905 24.662 42.5711 25.0858 42.9325 26.043L45.9564 25.3625C46.0212 24.6769 45.7695 23.8643 46.293 23.3083H47.2876C47.7338 23.5701 47.7089 24.9212 47.4496 25.3675L50.5732 26.0256C51.2513 23.8742 53.0586 25.0658 51.9094 26.8383C52.5601 26.8308 53.4475 28.3215 53.8788 28.0997C54.1655 27.9526 54.3998 27.4017 54.861 27.2546C55.6014 27.0178 56.262 27.4366 56.1648 28.2193L54.7065 29.573L56.1872 32.2229C56.4864 32.4124 57.8325 31.4152 58.1342 32.4099C58.4632 33.4893 57.3788 33.7685 56.5163 33.943L57.0198 37.2311C59.8468 36.8397 59.8592 39.4498 57.0198 39.0609L56.5163 42.8451C58.8297 42.9523 57.8824 45.4502 55.8582 44.3284C55.5416 46.0435 54.6017 47.5542 53.8788 49.1097H59.0715C59.605 49.1097 59.8941 51.0641 58.2513 51.2561L15.0147 51.1265C13.3769 50.2839 13.1027 48.7532 15.4659 49.1072C14.8352 47.8583 14.1223 46.5894 13.9752 45.1585C11.9759 45.5698 11.2455 43.7824 13.494 43.588L13.4616 40.9729C11.6393 40.0431 11.7615 38.6645 13.9752 39.213L14.9449 36.9619C14.9848 36.5157 13.9802 36.3611 14.1472 35.3515C14.3292 34.2397 15.6454 34.9601 16.0443 35.5858L17.3755 34.6036C17.5201 34.3743 16.6126 33.1129 17.732 32.9832C18.6593 32.8736 18.6493 33.7436 18.8787 33.7884L20.9079 33.4469C20.4542 30.6324 23.0144 30.6449 22.5582 33.4469L24.5999 33.7909C25.2331 32.0634 27.0828 32.7489 26.0208 34.4341L27.5863 35.5883C27.7658 35.5883 28.409 34.2471 29.2516 34.9152C30.1415 35.6232 28.6558 36.6478 28.6857 36.9594C28.6957 37.0666 29.4286 38.7867 29.5133 38.9387C29.5732 39.0459 29.6006 39.1631 29.7427 39.193C30.3111 39.041 30.9742 38.834 31.2683 39.4972C31.6074 40.6464 30.0269 40.7012 29.9671 40.9729C30.2861 41.7856 29.977 42.6008 29.987 43.2689C29.9945 43.8921 31.0116 43.3836 31.3431 44.2112C31.737 45.1934 30.3958 45.4876 29.6505 45.1485C29.3962 46.567 28.7779 47.9057 28.0002 49.1047H39.7043L39.6993 49.1072ZM47.9258 49.0873C50.2068 43.9794 50.6355 37.5726 49.5412 32.0958C48.5889 27.3319 45.8143 25.1556 44.2338 31.136C43.1818 35.1147 43.3214 40.3024 44.0668 44.3309C44.2114 45.1161 45.0789 48.853 45.7445 49.0823L47.9258 49.0898V49.0873ZM43.1619 28.3365C43.0298 28.2069 42.0875 29.0096 41.9204 29.1542C36.9721 33.4444 38.2559 41.2297 40.7114 46.5271C40.9083 46.9509 41.7759 48.8056 41.9902 49C42.1822 49.172 43.6106 49.2792 43.486 48.8629C43.2915 48.2173 42.8079 47.4295 42.5835 46.6318C41.2399 41.8754 40.8086 34.2596 42.5387 29.6079C42.7032 29.1641 42.9649 28.7603 43.1594 28.334L43.1619 28.3365ZM51.5355 49.0723C55.3945 43.2963 57.1719 32.6342 50.4162 28.334C52.9091 34.7607 52.6423 42.7279 50.0846 49.1047L51.5355 49.0723ZM21.3541 35.4562C20.6586 35.6656 20.16 37.4056 19.998 38.0588C19.3075 40.8732 19.3997 45.2009 20.5464 47.8982C20.9129 48.7632 21.0799 49.2319 22.1468 49.1147C22.9446 49.0275 23.1191 48.1525 23.331 47.4918C24.2134 44.7372 24.1611 41.6734 23.6551 38.854C23.4656 37.792 22.8798 34.9975 21.3516 35.4537L21.3541 35.4562ZM24.8641 49.1072C25.4225 49.6382 26.5593 47.6763 26.7612 47.2974C28.7555 43.6004 28.9973 38.5972 25.1084 36.0844L26.0133 41.1125C26.1454 43.8522 25.7964 46.5371 24.8616 49.1047L24.8641 49.1072ZM18.9261 49.1072C17.707 46.3925 17.5001 43.3985 17.6098 40.4544L18.3502 36.2489C14.6782 38.7244 14.7903 44.094 16.9168 47.5741C17.3406 48.2671 17.9987 49.3166 18.9261 49.1072Z" fill="#3A778B"/>
<path d="M36.6228 21.9647C36.7026 21.9074 36.8547 22.0321 36.8497 21.8426C32.2628 20.7083 28.1744 22.8747 26.3272 27.1849C25.9607 28.0399 25.891 29.8173 24.6071 29.244C23.6573 28.8202 24.9811 26.255 25.3201 25.5744C27.4665 21.2568 32.4348 19.0531 37.0915 20.2347C36.8372 19.5816 35.7827 18.4622 36.3212 17.7617C36.6577 17.323 37.3532 17.3305 37.7471 17.6969C37.9042 17.8415 39.5345 20.4765 39.6542 20.7632C39.9085 21.3714 39.9583 21.7553 39.4423 22.2489C38.7517 22.4534 36.6552 24.3155 36.1866 24.3455C35.2866 24.4053 34.7257 23.5951 35.2717 22.8871C35.349 22.7849 36.3785 22.1442 36.6228 21.9672V21.9647Z" fill="#3A778B"/>
</svg>
