<svg width="74" height="74" viewBox="0 0 74 74" fill="none" xmlns="http://www.w3.org/2000/svg">
<path d="M36.8047 1C56.5791 1 72.6102 17.0303 72.6104 36.8047C72.6104 56.5792 56.5792 72.6104 36.8047 72.6104C17.0303 72.6102 1 56.5791 1 36.8047C1.00015 17.0304 17.0304 1.00014 36.8047 1Z" fill="#E7E3DA" stroke="#3A778B" stroke-width="2"/>
<path d="M31.9414 27.6337C31.7569 27.5814 31.4005 27.0005 31.4005 26.7662C31.4005 25.5546 33.2626 25.6992 34.0703 25.7391C33.5792 23.2437 32.5522 20.9004 32.8513 18.2904C33.3723 13.7359 38.054 10.5749 42.1971 13.2747C46.5248 16.0966 45.0939 21.6209 43.8499 25.7391C44.7374 25.7441 46.7841 25.435 46.5074 26.8858C46.4575 27.1401 46.0437 27.6337 45.8218 27.6337H40.2228V32.9186L47.5593 38.9888C48.5341 39.9411 47.2427 41.2324 46.1583 40.5469L38.8841 34.731C37.5529 35.2694 32.4101 40.0832 31.4653 40.0857C30.7747 40.0857 30.1216 39.0262 30.5903 38.4329L38.0116 32.6843V27.6362H31.9389L31.9414 27.6337ZM39.2655 14.5535H38.8168C37.4457 18.1458 38.57 22.0347 38.6473 25.7441L39.2655 25.7316C39.5846 22.0372 40.487 18.1732 39.2655 14.5535ZM36.9122 25.7416C36.7028 23.1091 36.0921 20.2573 36.284 17.6198C36.3488 16.7049 36.7053 15.7775 36.6779 14.8577C33.3299 17.8766 35.1622 22.0073 35.8104 25.7391H36.9147L36.9122 25.7416ZM42.1024 25.7267C42.7705 22.3164 44.6477 17.5924 41.3296 15.0147C42.075 18.5496 41.4368 22.1843 41.1701 25.7416L42.1024 25.7267Z" fill="#3A778B"/>
<path d="M28.0779 49.718C28.8707 49.8003 30.0074 49.4513 30.6032 50.1094C31.0395 50.5905 30.9572 51.1489 30.4561 51.5453C29.9077 51.9791 27.3151 51.7298 26.4152 51.7622C23.6306 51.8619 20.699 52.1311 17.897 51.9342C17.2638 51.8893 16.1495 51.8594 15.8927 51.2561C15.1872 49.5934 17.376 49.6981 18.4554 49.718C17.6577 46.3352 16.3115 42.6731 17.5031 39.223C19.3528 33.8682 25.8692 33.1503 28.5815 38.2532C30.5559 41.9651 28.933 45.9413 28.0804 49.718H28.0779ZM23.6605 49.8776C23.5907 45.6646 24.917 41.2646 23.511 37.1688L23.0323 37.099C21.7011 41.2272 22.7207 45.6446 22.8703 49.8776H23.6605ZM21.1377 49.8776C20.9308 46.6518 20.2602 43.2589 20.5095 40.0207C20.5718 39.208 20.861 38.3829 20.9034 37.5752C17.2762 40.771 19.5847 45.9014 20.3649 49.8626L21.1377 49.88V49.8776ZM25.8667 37.5727L25.5526 37.6524C26.6246 41.646 25.615 45.8316 25.3956 49.8776L26.0886 49.8875C26.8514 46.6044 28.4818 42.7778 27.0533 39.4673C26.7567 38.7817 26.1684 38.2507 25.8667 37.5752V37.5727Z" fill="#3A778B"/>
<path d="M59.4677 51.7697C60.1657 51.8744 61.5891 51.473 62.0005 52.1536C62.524 53.0236 61.8235 53.7066 60.951 53.8064C56.8227 53.5695 52.2558 54.1703 48.1799 53.8263C47.5791 53.7764 46.9858 53.5521 47.0406 52.8217C47.1404 51.5054 48.9602 52.019 49.8426 51.9267C49.1696 48.514 47.7411 44.7971 48.7832 41.3245C50.1966 36.6204 56.1472 35.187 59.3031 39.0734C62.2198 42.6681 60.4524 47.7611 59.4652 51.7672L59.4677 51.7697ZM54.8833 39.0011L54.4221 38.9936C53.6892 41.2023 53.754 43.401 53.7814 45.7045L54.2625 51.7722C54.7811 51.7996 54.9157 51.8719 55.0079 51.3409C55.2697 49.8601 55.4591 47.3947 55.5289 45.8615C55.6336 43.6055 55.6212 41.145 54.8808 39.0011H54.8833ZM52.5275 51.9267C52.3106 48.6785 51.6375 45.166 51.8993 41.9128C51.9641 41.1001 52.2956 40.2824 52.2907 39.4648C48.7233 42.5884 50.947 47.9032 51.7198 51.8345L52.5275 51.9267ZM57.5532 51.7497C58.5254 47.8434 60.5621 42.5659 56.9449 39.4673C57.5207 41.3419 57.421 43.2889 57.4235 45.2308L56.7853 51.7722L57.5532 51.7522V51.7497Z" fill="#3A778B"/>
</svg>
