<svg width="230" height="127" viewBox="0 0 230 127" fill="none" xmlns="http://www.w3.org/2000/svg">
<path d="M2.40405 113.755H8.94036V115.999H3.85807L4.95645 114.886V122.817L3.85807 121.704H9.02589V123.948H2.40405V113.76V113.755ZM4.61883 117.759H8.44969V119.88H4.61883V117.759Z" fill="white"/>
<path d="M12.6092 119.698L12.6542 120.646L10.4394 116.223H13.0548L14.5268 119.369L13.8606 119.597L15.4947 116.227H18.0066L15.4812 120.879L15.7783 119.479L18.1236 123.948H15.5082L13.9056 120.756L14.2612 120.965L12.8207 123.943H10.3088L12.6092 119.698Z" fill="white"/>
<path d="M19.0554 116.223H24.7319L24.4483 118.134H19.0554V116.223ZM20.793 123.46C20.3384 123.008 20.1088 122.302 20.1088 121.339V114.403L22.5757 114.043V121.339C22.5757 121.608 22.6387 121.8 22.7602 121.909C22.8818 122.019 23.0933 122.074 23.3904 122.074C23.656 122.074 24.0207 122.033 24.4753 121.955L24.7139 123.925C24.0522 124.066 23.4535 124.135 22.9178 124.135C21.9589 124.135 21.2477 123.907 20.793 123.455V123.46Z" fill="white"/>
<path d="M29.2923 123.943H26.8254V118.06L25.9656 117.923V116.222H29.2923V123.943ZM29.1572 112.538V115.064H26.6453V112.538H29.1572Z" fill="white"/>
<path d="M31.7002 123.943V116.222H33.4378L34.1671 117.996V123.943H31.7002ZM36.706 116.04C37.3812 116.04 37.8899 116.245 38.2455 116.656C38.5966 117.066 38.7722 117.673 38.7722 118.475V123.938H36.3053V118.822C36.3053 118.571 36.2468 118.389 36.1343 118.279C36.0217 118.17 35.8417 118.115 35.5941 118.115C35.3645 118.115 35.1034 118.142 34.8063 118.192C34.5092 118.243 34.2031 118.32 33.8835 118.42L33.5143 117.367C34.5047 116.482 35.5671 116.045 36.706 116.045V116.04Z" fill="white"/>
<path d="M45.6462 124.034C45.2095 124.103 44.8044 124.139 44.4263 124.139C43.1973 124.139 42.2745 123.802 41.6578 123.132C41.0366 122.461 40.7305 121.44 40.7305 120.076C40.7305 118.713 41.0456 117.75 41.6803 117.066C42.315 116.382 43.2514 116.045 44.4893 116.045C44.8674 116.045 45.2546 116.081 45.6552 116.15C46.0558 116.218 46.4025 116.309 46.6861 116.419L46.2269 118.179C45.7722 118.047 45.3041 117.983 44.8314 117.983C44.3047 117.983 43.9176 118.152 43.6655 118.494C43.4134 118.836 43.2874 119.36 43.2874 120.072C43.2874 120.783 43.4179 121.33 43.679 121.672C43.9401 122.019 44.3362 122.192 44.8584 122.192C45.0655 122.192 45.3041 122.174 45.5697 122.137C45.8353 122.101 46.1054 122.046 46.371 121.964L46.8616 123.724C46.4835 123.857 46.0784 123.957 45.6417 124.025L45.6462 124.034Z" fill="white"/>
<path d="M47.9783 116.223H53.6548L53.3712 118.134H47.9783V116.223ZM49.7159 123.46C49.2612 123.008 49.0316 122.302 49.0316 121.339V114.403L51.4985 114.043V121.339C51.4985 121.608 51.5615 121.8 51.6831 121.909C51.8046 122.019 52.0162 122.074 52.3133 122.074C52.5789 122.074 52.9435 122.033 53.3982 121.955L53.6368 123.925C52.975 124.066 52.3763 124.135 51.8406 124.135C50.8818 124.135 50.1705 123.907 49.7159 123.455V123.46Z" fill="white"/>
<path d="M58.2149 123.943H55.748V118.06L54.8882 117.923V116.222H58.2149V123.943ZM58.0798 112.538V115.064H55.5679V112.538H58.0798Z" fill="white"/>
<path d="M61.127 123.136C60.5238 122.47 60.2222 121.449 60.2222 120.071C60.2222 118.694 60.5418 117.732 61.181 117.053C61.8202 116.378 62.7701 116.036 64.026 116.036C65.282 116.036 66.3083 116.369 66.916 117.03C67.5237 117.691 67.8299 118.703 67.8299 120.071C67.8299 121.44 67.5057 122.429 66.862 123.113C66.2183 123.797 65.2729 124.135 64.026 124.135C62.698 124.135 61.7347 123.802 61.127 123.136ZM64.7508 121.987C64.9308 121.845 65.0569 121.622 65.1379 121.316C65.2189 121.011 65.2549 120.596 65.2549 120.076C65.2549 119.556 65.2144 119.141 65.1379 118.84C65.0569 118.539 64.9308 118.32 64.7508 118.184C64.5707 118.047 64.3276 117.978 64.0215 117.978C63.7154 117.978 63.4678 118.047 63.2877 118.184C63.1032 118.32 62.9726 118.539 62.8961 118.84C62.8151 119.141 62.7791 119.552 62.7791 120.076C62.7791 120.6 62.8196 121.011 62.8961 121.316C62.9771 121.622 63.1077 121.845 63.2877 121.987C63.4723 122.128 63.7154 122.197 64.0215 122.197C64.3276 122.197 64.5707 122.128 64.7508 121.987Z" fill="white"/>
<path d="M69.8152 123.943V116.222H71.5528L72.2821 117.996V123.943H69.8152ZM74.821 116.04C75.4962 116.04 76.0049 116.245 76.3605 116.656C76.7116 117.066 76.8872 117.673 76.8872 118.475V123.938H74.4203V118.822C74.4203 118.571 74.3618 118.389 74.2493 118.279C74.1367 118.17 73.9567 118.115 73.7091 118.115C73.4795 118.115 73.2184 118.142 72.9213 118.192C72.6242 118.243 72.3181 118.32 71.9985 118.42L71.6293 117.367C72.6197 116.482 73.6821 116.045 74.821 116.045V116.04Z" fill="white"/>
<path d="M83.0098 123.943V113.755H86.9171C88.0741 113.755 88.9339 114.043 89.4966 114.613C90.0548 115.183 90.3339 116.081 90.3339 117.308C90.3339 118.535 90.0277 119.46 89.42 120.09C88.8123 120.723 87.9255 121.038 86.7686 121.038H84.8824V118.918H86.3544C86.8496 118.918 87.2007 118.804 87.4033 118.58C87.6059 118.357 87.7094 117.951 87.7094 117.367C87.7094 116.975 87.6734 116.679 87.6059 116.473C87.5384 116.268 87.4123 116.122 87.2368 116.036C87.0612 115.949 86.8001 115.908 86.4625 115.908H84.4728L85.5712 114.886V123.948H83.0143L83.0098 123.943Z" fill="white"/>
<path d="M92.1746 116.223H93.9122L94.6414 117.878V123.943H92.1746V116.223ZM95.5823 116.474C96.0324 116.246 96.4916 116.104 96.9553 116.045L97.3109 118.453C96.7662 118.371 96.244 118.352 95.7443 118.393C95.2446 118.434 94.781 118.535 94.3533 118.694L94.2498 117.459C94.6864 117.025 95.1276 116.697 95.5778 116.474H95.5823Z" fill="white"/>
<path d="M99.4897 123.154C98.8325 122.498 98.5039 121.481 98.5039 120.108C98.5039 118.735 98.8145 117.764 99.4312 117.076C100.048 116.387 100.953 116.045 102.141 116.045C103.222 116.045 104.032 116.355 104.577 116.971C105.121 117.586 105.391 118.558 105.391 119.885V120.756H100.192V119.479H104.203L103.073 120.304V119.415C103.073 119.032 103.037 118.731 102.96 118.503C102.884 118.279 102.776 118.115 102.627 118.02C102.479 117.924 102.29 117.878 102.065 117.878C101.669 117.878 101.385 118.029 101.218 118.33C101.052 118.631 100.966 119.141 100.966 119.866V120.377C100.966 121.079 101.106 121.581 101.38 121.882C101.66 122.183 102.092 122.334 102.686 122.334C103.321 122.334 104.054 122.229 104.883 122.019L105.166 123.734C104.275 124.003 103.37 124.139 102.447 124.139C101.128 124.139 100.142 123.811 99.4852 123.154H99.4897Z" fill="white"/>
<path d="M108.916 123.943L106.404 116.223H109.047L110.636 122.621L110.1 122.589L111.721 116.223H114.201L111.689 123.943H108.912H108.916Z" fill="white"/>
<path d="M116.173 123.154C115.515 122.498 115.187 121.481 115.187 120.108C115.187 118.735 115.497 117.764 116.114 117.076C116.731 116.387 117.636 116.045 118.824 116.045C119.904 116.045 120.715 116.355 121.259 116.971C121.804 117.586 122.074 118.558 122.074 119.885V120.756H116.875V119.479H120.886L119.756 120.304V119.415C119.756 119.032 119.72 118.731 119.643 118.503C119.567 118.279 119.459 118.115 119.31 118.02C119.162 117.924 118.973 117.878 118.748 117.878C118.351 117.878 118.068 118.029 117.901 118.33C117.735 118.631 117.649 119.141 117.649 119.866V120.377C117.649 121.079 117.789 121.581 118.063 121.882C118.342 122.183 118.775 122.334 119.369 122.334C120.003 122.334 120.737 122.229 121.566 122.019L121.849 123.734C120.958 124.003 120.053 124.139 119.13 124.139C117.811 124.139 116.825 123.811 116.168 123.154H116.173Z" fill="white"/>
<path d="M124.095 123.943V116.222H125.833L126.562 117.996V123.943H124.095ZM129.101 116.04C129.776 116.04 130.285 116.245 130.641 116.656C130.992 117.066 131.167 117.673 131.167 118.475V123.938H128.701V118.822C128.701 118.571 128.642 118.389 128.53 118.279C128.417 118.17 128.237 118.115 127.989 118.115C127.76 118.115 127.499 118.142 127.202 118.192C126.904 118.243 126.598 118.32 126.279 118.42L125.91 117.367C126.9 116.482 127.962 116.045 129.101 116.045V116.04Z" fill="white"/>
<path d="M132.874 116.223H138.55L138.267 118.134H132.874V116.223ZM134.616 123.46C134.161 123.008 133.932 122.302 133.932 121.339V114.403L136.399 114.043V121.339C136.399 121.608 136.462 121.8 136.583 121.909C136.705 122.019 136.916 122.074 137.213 122.074C137.479 122.074 137.844 122.033 138.298 121.955L138.537 123.925C137.875 124.066 137.276 124.135 136.741 124.135C135.782 124.135 135.071 123.907 134.616 123.455V123.46Z" fill="white"/>
<path d="M143.11 123.943H140.643V118.06L139.783 117.923V116.222H143.11V123.943ZM142.975 112.538V115.064H140.463V112.538H142.975Z" fill="white"/>
<path d="M146.023 123.136C145.42 122.47 145.118 121.449 145.118 120.071C145.118 118.694 145.438 117.732 146.077 117.053C146.716 116.378 147.666 116.036 148.922 116.036C150.178 116.036 151.204 116.369 151.812 117.03C152.419 117.691 152.726 118.703 152.726 120.071C152.726 121.44 152.401 122.429 151.758 123.113C151.114 123.797 150.169 124.135 148.922 124.135C147.594 124.135 146.63 123.802 146.023 123.136ZM149.647 121.987C149.827 121.845 149.953 121.622 150.034 121.316C150.115 121.011 150.151 120.596 150.151 120.076C150.151 119.556 150.11 119.141 150.034 118.84C149.953 118.539 149.827 118.32 149.647 118.184C149.466 118.047 149.223 117.978 148.917 117.978C148.611 117.978 148.364 118.047 148.184 118.184C147.999 118.32 147.868 118.539 147.792 118.84C147.711 119.141 147.675 119.552 147.675 120.076C147.675 120.6 147.715 121.011 147.792 121.316C147.873 121.622 148.003 121.845 148.184 121.987C148.368 122.128 148.611 122.197 148.917 122.197C149.223 122.197 149.466 122.128 149.647 121.987Z" fill="white"/>
<path d="M154.711 123.943V116.222H156.449L157.178 117.996V123.943H154.711ZM159.717 116.04C160.392 116.04 160.901 116.245 161.256 116.656C161.607 117.066 161.783 117.673 161.783 118.475V123.938H159.316V118.822C159.316 118.571 159.258 118.389 159.145 118.279C159.032 118.17 158.852 118.115 158.605 118.115C158.375 118.115 158.114 118.142 157.817 118.192C157.52 118.243 157.214 118.32 156.894 118.42L156.525 117.367C157.515 116.482 158.578 116.045 159.717 116.045V116.04Z" fill="white"/>
<path d="M167.905 123.943V113.755H171.812C172.969 113.755 173.829 114.043 174.392 114.613C174.95 115.183 175.229 116.081 175.229 117.308C175.229 118.535 174.923 119.46 174.315 120.09C173.707 120.723 172.821 121.038 171.664 121.038H169.777V118.918H171.249C171.745 118.918 172.096 118.804 172.298 118.58C172.501 118.357 172.604 117.951 172.604 117.367C172.604 116.975 172.568 116.679 172.501 116.473C172.433 116.268 172.307 116.122 172.132 116.036C171.956 115.949 171.695 115.908 171.358 115.908H169.368L170.466 114.886V123.948H167.909L167.905 123.943Z" fill="white"/>
<path d="M177.07 116.223H178.808L179.537 117.878V123.943H177.07V116.223ZM180.478 116.474C180.928 116.246 181.387 116.104 181.851 116.045L182.207 118.453C181.662 118.371 181.14 118.352 180.64 118.393C180.14 118.434 179.677 118.535 179.249 118.694L179.146 117.459C179.582 117.025 180.023 116.697 180.474 116.474H180.478Z" fill="white"/>
<path d="M184.304 123.136C183.701 122.47 183.399 121.449 183.399 120.071C183.399 118.694 183.719 117.732 184.358 117.053C184.997 116.378 185.947 116.036 187.203 116.036C188.459 116.036 189.486 116.369 190.093 117.03C190.701 117.691 191.007 118.703 191.007 120.071C191.007 121.44 190.683 122.429 190.039 123.113C189.396 123.797 188.45 124.135 187.203 124.135C185.875 124.135 184.912 123.802 184.304 123.136ZM187.928 121.987C188.108 121.845 188.234 121.622 188.315 121.316C188.396 121.011 188.432 120.596 188.432 120.076C188.432 119.556 188.392 119.141 188.315 118.84C188.234 118.539 188.108 118.32 187.928 118.184C187.748 118.047 187.505 117.978 187.199 117.978C186.893 117.978 186.645 118.047 186.465 118.184C186.28 118.32 186.15 118.539 186.073 118.84C185.992 119.141 185.956 119.552 185.956 120.076C185.956 120.6 185.997 121.011 186.073 121.316C186.154 121.622 186.285 121.845 186.465 121.987C186.65 122.128 186.893 122.197 187.199 122.197C187.505 122.197 187.748 122.128 187.928 121.987Z" fill="white"/>
<path d="M193.186 126.374C192.632 126.027 192.353 125.535 192.353 124.892C192.353 124.472 192.502 124.089 192.808 123.747C193.109 123.405 193.51 123.104 194.005 122.844L195.122 123.309C194.914 123.528 194.761 123.747 194.662 123.957C194.563 124.166 194.514 124.358 194.514 124.527C194.514 124.768 194.631 124.951 194.865 125.074C195.099 125.197 195.486 125.261 196.031 125.261C196.494 125.261 196.846 125.192 197.08 125.056C197.314 124.919 197.431 124.718 197.431 124.445C197.431 124.226 197.354 124.066 197.206 123.979C197.057 123.888 196.823 123.843 196.508 123.843H194.163L193.6 123.437L192.844 122.579L194.316 120.368L195 121.015L194.613 122.338H196.9C197.849 122.338 198.552 122.516 199.011 122.867C199.466 123.218 199.695 123.706 199.695 124.326C199.695 125.211 199.353 125.854 198.669 126.269C197.985 126.679 196.994 126.884 195.698 126.884C194.59 126.884 193.758 126.711 193.204 126.364L193.186 126.374ZM193.469 120.91C192.907 120.413 192.623 119.743 192.623 118.899C192.623 118.316 192.754 117.809 193.015 117.381C193.276 116.948 193.649 116.619 194.136 116.387C194.622 116.154 195.189 116.04 195.842 116.04C196.206 116.04 196.571 116.086 196.927 116.177C197.282 116.268 197.584 116.409 197.831 116.596L197.579 117.23C197.845 117.321 198.079 117.463 198.277 117.65C198.475 117.841 198.628 118.069 198.736 118.334C198.844 118.598 198.898 118.877 198.898 119.168C198.898 119.629 198.786 120.049 198.565 120.427C198.345 120.806 197.994 121.102 197.525 121.321C197.053 121.54 196.467 121.654 195.765 121.654C194.793 121.654 194.028 121.407 193.46 120.91H193.469ZM196.463 119.825C196.585 119.638 196.648 119.319 196.648 118.867C196.648 118.416 196.585 118.065 196.454 117.873C196.323 117.682 196.116 117.586 195.828 117.586C195.54 117.586 195.333 117.677 195.203 117.864C195.072 118.051 195.009 118.375 195.009 118.835C195.009 119.296 195.072 119.634 195.203 119.82C195.333 120.007 195.54 120.099 195.828 120.099C196.116 120.099 196.337 120.007 196.458 119.82L196.463 119.825ZM196.427 116.222H199.547V117.394L197.498 117.937L196.427 116.222Z" fill="white"/>
<path d="M201.298 116.223H203.035L203.765 117.878V123.943H201.298V116.223ZM204.706 116.474C205.156 116.246 205.615 116.104 206.079 116.045L206.434 118.453C205.889 118.371 205.367 118.352 204.868 118.393C204.368 118.434 203.904 118.535 203.477 118.694L203.373 117.459C203.81 117.025 204.251 116.697 204.701 116.474H204.706Z" fill="white"/>
<path d="M207.983 123.537C207.586 123.136 207.388 122.612 207.388 121.96C207.388 121.417 207.492 120.961 207.699 120.592C207.906 120.222 208.217 119.93 208.635 119.725C209.05 119.52 209.581 119.392 210.224 119.342L211.89 119.237V120.5L210.85 120.605C210.603 120.623 210.409 120.669 210.269 120.742C210.13 120.81 210.031 120.911 209.972 121.034C209.914 121.162 209.882 121.326 209.882 121.54C209.882 121.782 209.95 121.969 210.089 122.106C210.229 122.242 210.422 122.311 210.67 122.311C210.877 122.311 211.08 122.288 211.273 122.233C211.467 122.183 211.696 122.096 211.962 121.978L212.349 122.717C211.985 123.186 211.566 123.542 211.102 123.784C210.639 124.025 210.116 124.144 209.54 124.144C208.896 124.144 208.374 123.943 207.983 123.542V123.537ZM211.962 122.425L211.633 122.242V118.827C211.633 118.526 211.552 118.307 211.39 118.165C211.228 118.024 210.967 117.956 210.612 117.956C210.283 117.956 209.914 117.988 209.504 118.047C209.095 118.106 208.676 118.193 208.248 118.302L207.906 116.483C208.419 116.341 208.959 116.236 209.518 116.159C210.076 116.081 210.616 116.045 211.129 116.045C212.129 116.045 212.876 116.264 213.367 116.702C213.857 117.139 214.1 117.81 214.1 118.713V121.873C214.1 122.274 214.127 122.639 214.181 122.972C214.235 123.305 214.321 123.629 214.442 123.952H212.273L211.962 122.434V122.425Z" fill="white"/>
<path d="M216.495 116.223H218.233L218.962 117.878V123.943H216.495V116.223ZM220.794 118.293C220.691 118.179 220.52 118.12 220.281 118.12C220.043 118.12 219.809 118.147 219.547 118.197C219.286 118.248 218.994 118.325 218.679 118.425L218.201 117.372C218.805 116.902 219.349 116.56 219.827 116.355C220.308 116.15 220.772 116.045 221.218 116.045C221.969 116.045 222.523 116.246 222.883 116.638C223.239 117.035 223.419 117.632 223.419 118.434V123.943H220.952V118.859C220.952 118.599 220.898 118.412 220.794 118.293ZM225.251 118.293C225.147 118.179 224.976 118.12 224.738 118.12C224.499 118.12 224.252 118.147 223.986 118.197C223.725 118.248 223.432 118.325 223.117 118.425L222.658 117.372C223.261 116.902 223.806 116.56 224.283 116.355C224.765 116.15 225.228 116.045 225.674 116.045C226.426 116.045 226.98 116.246 227.34 116.647C227.7 117.048 227.875 117.659 227.875 118.485V123.948H225.409V118.863C225.409 118.603 225.354 118.416 225.251 118.298V118.293Z" fill="white"/>
<path d="M105.689 14.1503C106.296 11.6969 107.642 10.5386 110.397 10.5386H122.241C124.798 10.5386 125.473 11.4917 124.262 14.0135C121.3 20.3523 116.789 29.0122 113.022 35.4878C117.127 42.7158 121.57 50.8969 124.933 57.8513C126.009 60.2363 125.406 61.2624 122.646 61.2624H106.562C104.005 61.2624 102.456 60.2409 101.516 57.6507C100.305 54.308 99.0262 50.491 97.8828 47.0845H97.7478L95.7266 57.5823C95.1188 60.1041 93.7729 61.2624 91.0134 61.2624H77.8913C75.3344 61.2624 74.5916 60.2409 75.6045 57.6507C78.5665 50.491 82.807 40.8096 86.3047 33.3125C82.6044 27.1744 78.7646 20.4252 75.4019 13.8812C74.326 11.5646 74.8617 10.5386 77.6212 10.5386H93.2327C95.7896 10.5386 97.2706 11.5601 98.0764 14.2187C99.2873 17.9672 100.633 21.7203 102.114 25.4689H102.249C103.46 21.994 104.739 17.7666 105.68 14.1503H105.689Z" fill="white"/>
<path d="M150.443 57.5139C150.443 60.1041 149.368 61.2624 146.608 61.2624H134.697C132.14 61.2624 130.997 60.1725 130.997 57.377V14.2871C130.997 11.6969 132.072 10.5386 134.832 10.5386H154.351C174.27 10.5386 177.705 18.4461 177.705 30.5171C177.705 42.5881 171.313 50.1536 160.342 50.1536C156.237 50.1536 153.41 49.6748 150.515 49.0637V50.222L150.448 57.5184L150.443 57.5139ZM158.789 30.0383C158.789 26.6956 157.578 24.3106 153.473 24.379L150.511 24.4474V35.766L153.473 35.8344C157.578 35.8344 158.789 33.4493 158.789 30.0383Z" fill="white"/>
<path d="M202.738 57.5139C202.738 60.1041 201.662 61.2624 198.903 61.2624H186.992C184.435 61.2624 183.291 60.1725 183.291 57.377V14.2871C183.291 11.6969 184.367 10.5386 187.127 10.5386H206.645C226.565 10.5386 230 18.4461 230 30.5171C230 42.5881 223.607 50.1536 212.637 50.1536C208.532 50.1536 205.705 49.6748 202.81 49.0637V50.222L202.743 57.5184L202.738 57.5139ZM211.084 30.0383C211.084 26.6956 209.873 24.3106 205.768 24.379L202.806 24.4474V35.766L205.768 35.8344C209.873 35.8344 211.084 33.4493 211.084 30.0383Z" fill="white"/>
<path d="M1.34131 88.4002C1.34131 78.8875 6.31557 73.21 15.3097 73.21C22.8859 73.21 27.6621 75.2894 27.6621 82.0067C27.6621 82.8458 27.6216 84.0041 27.5045 85.0849C27.347 86.6035 26.6357 87.324 25.0197 87.365L18.7039 87.6432C17.2049 87.6842 16.5747 87.0823 16.6512 85.4452V84.8067C16.6512 83.808 16.2956 83.2061 15.1117 83.2061C13.7702 83.2061 12.7438 84.8842 12.7438 88.4412C12.7438 90.1194 12.8249 93.6399 17.9117 93.6399C20.0049 93.6399 22.9219 93.3618 25.1727 92.8419C26.6312 92.4041 27.266 92.8419 27.266 94.479L27.2254 99.8738C27.2254 101.392 26.6357 102.273 25.0962 102.833C22.7284 103.472 19.3342 103.914 16.2191 103.914C3.74966 103.914 1.34131 96.0386 1.34131 88.4048V88.4002Z" fill="#3B7889"/>
<path d="M31.1777 91.3605C31.1777 82.8055 36.3456 78.8472 45.1462 78.8472C53.9468 78.8472 58.9976 82.8055 58.9976 91.3605C58.9976 99.9156 53.8657 103.915 45.1462 103.915C36.4266 103.915 31.1777 99.9566 31.1777 91.3605ZM47.5545 91.3605C47.5545 89.0029 46.6857 88.0407 45.1462 88.0407C43.5301 88.0407 42.6208 88.9983 42.6208 91.3605C42.6208 93.7228 43.5301 94.7169 45.1462 94.7169C46.7622 94.7169 47.5545 93.7182 47.5545 91.3605Z" fill="#3B7889"/>
<path d="M64.0081 107.112V81.6062C64.0081 80.0876 64.6383 79.4081 66.2589 79.4081L72.8897 79.3671C73.8755 79.3671 74.6633 80.0876 74.8614 81.0452L74.9019 81.3234C76.3244 79.9645 78.9263 78.8062 82.244 78.8062C87.0562 78.8062 90.2568 82.0439 90.2568 91.3195C90.2568 100.595 86.3089 103.91 81.1411 103.91C78.5752 103.91 76.4459 103.391 75.064 102.83V107.189C75.064 108.708 74.4337 109.387 72.8132 109.387H66.1823C64.6833 109.387 64.0126 108.749 64.0126 107.107L64.0081 107.112ZM76.8736 95.3599C78.3726 95.3599 78.8453 93.8824 78.8453 91.9625C78.8453 89.6459 78.3726 88.5241 76.8736 88.5241C76.2839 88.5241 75.6087 88.7658 75.0595 89.085V95.1228C75.5726 95.2824 76.2434 95.3645 76.8736 95.3645V95.3599Z" fill="#3B7889"/>
<path d="M93.9619 74.6515C93.9619 71.6919 96.2487 70.2554 100.791 70.2554C105.333 70.2554 107.539 71.6964 107.539 74.6515C107.539 77.6065 105.328 79.2072 100.791 79.2072C96.2532 79.2482 93.9619 77.6886 93.9619 74.6515ZM95.1098 101.315V82.9283C95.1098 81.4098 95.74 80.7303 97.3606 80.7303H104.383C105.882 80.7303 106.553 81.3687 106.553 83.0104V101.397C106.553 102.916 105.923 103.595 104.302 103.595H97.2796C95.7806 103.595 95.1098 102.957 95.1098 101.315Z" fill="#3B7889"/>
<path d="M124.703 101.393C122.848 102.912 120.678 103.91 117.996 103.91C113.773 103.91 111.09 101.352 111.05 96.2765C111.09 91.6798 113.219 89.8009 117.838 89.3586C119.774 89.1579 122.376 89.0804 124.545 89.0394C124.469 87.7214 123.956 87.2426 122.574 87.2791C120.125 87.3612 117.167 87.5983 114.723 87.799C113.224 87.9175 112.513 87.3612 112.436 85.7195L112.278 81.6837C112.197 80.1651 112.792 79.4446 114.408 79.326C118.356 79.0843 123.051 78.8472 125.81 78.8472C133.94 78.9293 135.871 81.1638 135.871 88.7612V101.192C135.871 102.711 135.241 103.391 133.621 103.391H127.147C125.725 103.391 124.977 102.83 124.698 101.393H124.703ZM122.812 95.7156C123.483 95.7156 124.037 95.556 124.586 95.1957V93.2758H123.519C121.822 93.2758 121.466 93.8732 121.466 94.6758C121.466 95.3143 121.822 95.7156 122.808 95.7156H122.812Z" fill="#3B7889"/>
<path d="M141.597 107.112V81.6062C141.597 80.0876 142.228 79.4081 143.848 79.4081L150.479 79.3671C151.465 79.3671 152.253 80.0876 152.451 81.0452L152.491 81.3234C153.914 79.9645 156.516 78.8062 159.829 78.8062C164.646 78.8062 167.842 82.0439 167.842 91.3195C167.842 100.595 163.894 103.91 158.726 103.91C156.16 103.91 154.031 103.391 152.649 102.83V107.189C152.649 108.708 152.019 109.387 150.398 109.387H143.767C142.268 109.387 141.597 108.749 141.597 107.107V107.112ZM154.458 95.3599C155.957 95.3599 156.43 93.8824 156.43 91.9625C156.43 89.6459 155.957 88.5241 154.458 88.5241C153.869 88.5241 153.198 88.7658 152.644 89.085V95.1228C153.157 95.2824 153.828 95.3645 154.458 95.3645V95.3599Z" fill="#3B7889"/>
<path d="M171.745 91.3605C171.745 82.8055 176.912 78.8472 185.713 78.8472C194.514 78.8472 199.564 82.8055 199.564 91.3605C199.564 99.9156 194.433 103.915 185.713 103.915C176.993 103.915 171.745 99.9566 171.745 91.3605ZM188.121 91.3605C188.121 89.0029 187.253 88.0407 185.713 88.0407C184.097 88.0407 183.188 88.9983 183.188 91.3605C183.188 93.7228 184.097 94.7169 185.713 94.7169C187.329 94.7169 188.121 93.7182 188.121 91.3605Z" fill="#3B7889"/>
<path d="M216.931 101.393C215.077 102.912 212.907 103.91 210.224 103.91C206.002 103.91 203.319 101.352 203.278 96.2765C203.319 91.6798 205.448 89.8009 210.066 89.3586C212.002 89.1579 214.604 89.0804 216.774 89.0394C216.697 87.7214 216.184 87.2426 214.802 87.2791C212.353 87.3612 209.396 87.5983 206.951 87.799C205.452 87.9175 204.741 87.3612 204.665 85.7195L204.507 81.6837C204.43 80.1651 205.02 79.4446 206.636 79.326C210.584 79.0843 215.279 78.8472 218.039 78.8472C226.169 78.9293 228.1 81.1638 228.1 88.7612V101.192C228.1 102.711 227.47 103.391 225.849 103.391H219.376C217.953 103.391 217.206 102.83 216.927 101.393H216.931ZM215.036 95.7156C215.707 95.7156 216.261 95.556 216.81 95.1957V93.2758H215.743C214.046 93.2758 213.69 93.8732 213.69 94.6758C213.69 95.3143 214.046 95.7156 215.032 95.7156H215.036Z" fill="#3B7889"/>
<path d="M34.6307 0H31.079C13.9414 0 0 14.1231 0 31.4795V33.8235C0 51.1798 13.9414 65.303 31.0745 65.303H34.6262C51.7593 65.303 65.7007 51.1798 65.7007 33.8235V31.4795C65.7052 14.1231 51.7638 0 34.6307 0ZM31.0745 60.2912C18.1054 60.2912 7.31958 50.6691 5.29837 38.1056C9.3588 35.6339 14.0044 34.3297 18.7581 34.3297H21.6977C35.7786 34.3297 46.4339 46.0085 47.2802 56.9759C43.5304 59.0873 39.2178 60.2958 34.6307 60.2958H31.079L31.0745 60.2912ZM60.7534 33.8235C60.7534 41.731 57.3052 48.8359 51.8583 53.6925C50.7419 47.5909 47.4557 41.9407 42.3104 37.4352C40.6493 35.9805 38.8532 34.7036 36.9761 33.6137C39.8481 32.7427 42.0809 31.0007 43.0622 29.0626C41.1715 27.7538 38.151 27.3205 35.0089 28.1231C33.7664 28.4424 32.632 28.9258 31.6462 29.5186C32.2449 28.5518 32.7401 27.43 33.0867 26.2033C33.969 23.0476 33.6269 19.9694 32.3844 18.0222C30.3182 19.0254 28.4365 21.4606 27.5542 24.6163C27.1446 26.0756 27.005 27.5166 27.0861 28.8391C26.4603 27.6534 25.578 26.4906 24.4481 25.4554C22.0443 23.2528 19.1723 22.2039 16.899 22.4684C16.872 24.6254 18.0154 27.1883 20.1086 29.3088H18.7581C13.9459 29.3088 9.22826 30.4352 4.95175 32.5831V31.4841C4.95175 16.8912 16.6694 5.02085 31.0745 5.02085H34.6262C49.0313 5.02085 60.7489 16.8912 60.7489 31.4841V33.828L60.7534 33.8235Z" fill="#3B7889"/>
<path d="M20.9729 50.8014C19.9961 50.0808 18.6321 50.3043 17.9208 51.2939C17.2141 52.2834 17.4346 53.6698 18.4115 54.3857C18.7941 54.673 19.2488 54.8098 19.6899 54.8098C20.3697 54.8098 21.0359 54.4906 21.4636 53.8932C22.1703 52.8991 21.9542 51.5173 20.9729 50.8014Z" fill="#3B7889"/>
<path d="M24.4254 44.2252C23.336 43.7054 22.0305 44.1842 21.5218 45.2878C21.0087 46.4005 21.4813 47.7138 22.5707 48.2291C22.8723 48.3705 23.1874 48.4389 23.498 48.4389C24.3173 48.4389 25.1096 47.9692 25.4742 47.162C25.9874 46.0585 25.5193 44.736 24.4209 44.2207L24.4254 44.2252Z" fill="#3B7889"/>
<path d="M26.9647 38.1972C26.9062 38.0649 26.8387 37.9327 26.7622 37.8141C26.6811 37.6956 26.5911 37.5815 26.4921 37.4812C26.3885 37.3763 26.285 37.2851 26.1635 37.2076C26.0464 37.1255 25.9159 37.0571 25.7853 37.0024C25.6503 36.9431 25.5152 36.9066 25.3712 36.8747C24.6599 36.7333 23.9082 36.9659 23.3995 37.4812C23.2959 37.577 23.2059 37.691 23.1294 37.8141C23.0529 37.9372 22.9808 38.0649 22.9313 38.1972C22.8728 38.3294 22.8368 38.4708 22.8053 38.6167C22.7783 38.7535 22.7603 38.904 22.7603 39.0454C22.7603 39.1868 22.7783 39.3372 22.8053 39.4832C22.8323 39.62 22.8728 39.7614 22.9313 39.8936C22.9808 40.0258 23.0484 40.1581 23.1294 40.2767C23.2104 40.3952 23.3004 40.5092 23.3995 40.6096C23.503 40.7144 23.6156 40.8102 23.7326 40.8923C23.8496 40.9744 23.9802 41.0428 24.1107 41.0929C24.2413 41.1522 24.3808 41.1887 24.5159 41.2206C24.6554 41.248 24.804 41.2662 24.9435 41.2662C25.0831 41.2662 25.2271 41.248 25.3667 41.2206C25.5062 41.1933 25.6413 41.1522 25.7808 41.0929C25.9114 41.0428 26.0419 40.9744 26.159 40.8923C26.276 40.8102 26.393 40.7144 26.4876 40.6096C26.5911 40.5138 26.6811 40.3998 26.7577 40.2767C26.8387 40.1581 26.9062 40.0258 26.9602 39.8936C27.0188 39.7614 27.0548 39.62 27.0863 39.4832C27.1133 39.3418 27.1313 39.1913 27.1313 39.0454C27.1313 38.8995 27.1133 38.7535 27.0863 38.6167C27.0593 38.4754 27.0188 38.3294 26.9602 38.1972H26.9647Z" fill="#3B7889"/>
<path d="M8.56651 40.0532C7.57616 40.7555 7.34208 42.1372 8.03533 43.1405C8.45847 43.7516 9.13821 44.0799 9.82246 44.0799C10.2591 44.0799 10.7003 43.9522 11.0829 43.6786C12.0642 42.9763 12.3028 41.5946 11.6096 40.5913C10.9163 39.5881 9.55236 39.3509 8.57101 40.0532H8.56651Z" fill="#3B7889"/>
<path d="M18.1459 40.5999C18.2765 40.5498 18.4025 40.4814 18.5195 40.3993C18.6456 40.3172 18.7491 40.2214 18.8527 40.1257C19.2578 39.7153 19.4919 39.1407 19.4919 38.5569C19.4919 37.9732 19.2623 37.3986 18.8527 36.9882C18.7491 36.8924 18.6456 36.8012 18.5195 36.7146C18.4025 36.6325 18.2765 36.5732 18.1459 36.5139C18.0109 36.4547 17.8758 36.4182 17.7318 36.3863C17.4482 36.327 17.1601 36.327 16.8765 36.3863C16.7369 36.4136 16.5974 36.4547 16.4713 36.5139C16.3363 36.5732 16.2102 36.6325 16.0932 36.7146C15.9762 36.8012 15.8591 36.8924 15.7601 36.9882C15.3549 37.3986 15.1208 37.9732 15.1208 38.5569C15.1208 39.1407 15.3549 39.7153 15.7601 40.1257C15.8636 40.2214 15.9762 40.3218 16.0932 40.3993C16.2102 40.4814 16.3363 40.5498 16.4713 40.5999C16.6019 40.6592 16.7369 40.7048 16.8765 40.7322C17.016 40.7596 17.1601 40.7732 17.3041 40.7732C17.4482 40.7732 17.5877 40.7596 17.7273 40.7322C17.8668 40.7048 18.0064 40.6592 18.1414 40.5999H18.1459Z" fill="#3B7889"/>
<path d="M37.4714 54.8324C37.3544 54.7504 37.2283 54.682 37.0933 54.6272C36.9627 54.5771 36.8232 54.5315 36.6791 54.4995C36.3955 54.4403 36.1074 54.4403 35.8238 54.4995C35.6843 54.5269 35.5402 54.5725 35.4097 54.6272C35.2746 54.6865 35.1486 54.7549 35.0315 54.8324C34.9145 54.9145 34.802 55.0057 34.6984 55.1061C34.2843 55.5256 34.0547 56.0956 34.0547 56.6793C34.0547 57.2631 34.2888 57.8422 34.6984 58.2526C35.1036 58.6631 35.6708 58.9048 36.247 58.9048C36.8232 58.9048 37.3949 58.6631 37.8 58.2526C38.2052 57.8422 38.4437 57.2631 38.4437 56.6793C38.4437 56.0956 38.2052 55.521 37.8 55.1061C37.6965 55.0012 37.5839 54.91 37.4669 54.8324H37.4714Z" fill="#3B7889"/>
<path d="M35.1844 50.8515C36.3368 50.473 36.976 49.2189 36.6024 48.0515C36.2287 46.884 34.9908 46.2365 33.8384 46.615C32.6815 46.9935 32.0468 48.2475 32.4204 49.415C32.722 50.3589 33.5863 50.9609 34.5136 50.9609C34.7342 50.9609 34.9638 50.9244 35.1844 50.8515Z" fill="#3B7889"/>
<path d="M33.3615 42.3836C33.4425 42.265 33.51 42.1328 33.564 42.0005C33.6226 41.8637 33.6586 41.7269 33.6901 41.581C33.7171 41.4396 33.7351 41.2937 33.7351 41.1432C33.7351 40.9927 33.7171 40.8514 33.6901 40.71C33.6631 40.5732 33.6226 40.4273 33.564 40.2996C33.5055 40.1628 33.438 40.0351 33.3615 39.9165C33.2804 39.7888 33.1904 39.6748 33.0914 39.579C32.9878 39.4742 32.8753 39.3784 32.7583 39.2963C32.6412 39.2142 32.5107 39.1458 32.3801 39.0911C32.2451 39.0409 32.11 38.9953 31.966 38.9634C31.6824 38.9041 31.3898 38.9041 31.1062 38.9634C30.9666 38.9908 30.8271 39.0364 30.701 39.0911C30.566 39.1504 30.4399 39.2188 30.3229 39.2963C30.1969 39.3784 30.0843 39.4742 29.9898 39.579C29.8862 39.6748 29.7917 39.7888 29.7107 39.9165C29.6297 40.0351 29.5621 40.1628 29.5081 40.2996C29.4586 40.4318 29.4136 40.5732 29.3821 40.71C29.3551 40.8514 29.3416 41.0018 29.3416 41.1432C29.3416 41.2846 29.3551 41.4351 29.3821 41.581C29.4091 41.7224 29.4541 41.8592 29.5081 42.0005C29.5666 42.1328 29.6342 42.265 29.7107 42.3836C29.7917 42.5022 29.8862 42.6162 29.9898 42.7211C30.3949 43.1315 30.9621 43.3732 31.5383 43.3732C32.1145 43.3732 32.6817 43.1315 33.0914 42.7211C33.1949 42.6162 33.2849 42.5022 33.3615 42.3836Z" fill="#3B7889"/>
</svg>
