<svg width="66" height="66" viewBox="0 0 66 66" fill="none" xmlns="http://www.w3.org/2000/svg">
<path d="M34.6307 0H31.079C13.9414 0 0 14.1231 0 31.4795V33.8235C0 51.1798 13.9414 65.303 31.0745 65.303H34.6262C51.7593 65.303 65.7007 51.1798 65.7007 33.8235V31.4795C65.7052 14.1231 51.7638 0 34.6307 0ZM31.0745 60.2912C18.1054 60.2912 7.31958 50.6691 5.29837 38.1056C9.3588 35.6339 14.0044 34.3297 18.7581 34.3297H21.6977C35.7786 34.3297 46.4339 46.0085 47.2802 56.9759C43.5304 59.0873 39.2178 60.2958 34.6307 60.2958H31.079L31.0745 60.2912ZM60.7534 33.8235C60.7534 41.731 57.3052 48.8359 51.8583 53.6925C50.7419 47.5909 47.4557 41.9407 42.3104 37.4352C40.6493 35.9805 38.8532 34.7036 36.9761 33.6137C39.8481 32.7427 42.0809 31.0007 43.0622 29.0626C41.1715 27.7538 38.151 27.3205 35.0089 28.1231C33.7664 28.4424 32.632 28.9258 31.6462 29.5186C32.2449 28.5518 32.7401 27.43 33.0867 26.2033C33.969 23.0476 33.6269 19.9694 32.3844 18.0222C30.3182 19.0254 28.4365 21.4606 27.5542 24.6163C27.1446 26.0756 27.005 27.5166 27.0861 28.8391C26.4603 27.6534 25.578 26.4906 24.4481 25.4554C22.0443 23.2528 19.1723 22.2039 16.899 22.4684C16.872 24.6254 18.0154 27.1883 20.1086 29.3088H18.7581C13.9459 29.3088 9.22826 30.4352 4.95175 32.5831V31.4841C4.95175 16.8912 16.6694 5.02085 31.0745 5.02085H34.6262C49.0313 5.02085 60.7489 16.8912 60.7489 31.4841V33.828L60.7534 33.8235Z" fill="#3B7889"/>
</svg>
